<svg xmlns="http://www.w3.org/2000/svg" width="128" height="128" viewBox="0 0 128 128" id="benefit"><path d="M18.671,86.251l-8.838,5.3a3.489,3.489,0,0,0-1.2,4.781l13.44,22.411a3.483,3.483,0,0,0,4.782,1.2l8.837-5.3a3.479,3.479,0,0,0,1.324-4.51l3.733-3.192a3.792,3.792,0,0,1,2.477-.918H71.76a11.178,11.178,0,0,0,8.577-4L91.8,88.338v29.4a3.964,3.964,0,0,0,3.96,3.96h8.88a3.965,3.965,0,0,0,3.96-3.96V70.09h7.18a4.069,4.069,0,0,0,3.489-6.173L103.7,37.9a4.074,4.074,0,0,0-7,0L81.134,63.915A4.067,4.067,0,0,0,84.62,70.09H91.8v.326L72.116,84.087a5.664,5.664,0,0,0-5.636-5.2H57.038c-.576-.359.7.36-4.656-2.477a5.846,5.846,0,0,0-2.692-.663H37.36a5.733,5.733,0,0,0-4.107,1.7L23.37,87.336A3.482,3.482,0,0,0,18.671,86.251Zm16,26.674-8.837,5.3a1.484,1.484,0,0,1-2.038-.511L10.352,95.3a1.488,1.488,0,0,1,.51-2.038l8.838-5.3a1.487,1.487,0,0,1,2.037.51l13.441,22.411A1.488,1.488,0,0,1,34.667,112.925ZM84.62,68.09a2.068,2.068,0,0,1-1.771-3.146l15.57-26.023a2.073,2.073,0,0,1,3.562,0l15.573,26.022a2.069,2.069,0,0,1-1.774,3.144H107.6a1,1,0,0,0-1,1v48.65a1.962,1.962,0,0,1-1.96,1.96H95.76a1.962,1.962,0,0,1-1.96-1.96V85.95l6.048-7.22A5.809,5.809,0,0,0,93.8,69.414V69.09a1,1,0,0,0-1-1ZM34.671,78.863A3.754,3.754,0,0,1,37.36,77.75H49.69a3.787,3.787,0,0,1,1.765.435l4.338,2.28a2.246,2.246,0,0,0,.967.425h9.72a3.664,3.664,0,0,1,3.66,3.66,3.725,3.725,0,0,1-1.067,2.593A3.636,3.636,0,0,1,66.48,88.21H49.92a1,1,0,0,0,0,2H66.48a5.586,5.586,0,0,0,5.164-3.361l21.594-15,.1-.057a3.81,3.81,0,0,1,4.975,5.655L78.805,100.736a9.179,9.179,0,0,1-7.045,3.284H43.23a5.8,5.8,0,0,0-3.781,1.4L36,108.37,24.44,89.094Z"></path><path d="M55.319,23.628A24.338,24.338,0,1,0,79.657,47.966,24.366,24.366,0,0,0,55.319,23.628Zm0,46.676A22.338,22.338,0,1,1,77.657,47.966,22.364,22.364,0,0,1,55.319,70.3Z"></path><path d="M55.319,28.628A19.338,19.338,0,1,0,74.657,47.966,19.36,19.36,0,0,0,55.319,28.628Zm0,36.676A17.338,17.338,0,1,1,72.657,47.966,17.358,17.358,0,0,1,55.319,65.3Z"></path><path d="M59 40.149a2.036 2.036 0 012.028 2.033 1 1 0 002 0 4.039 4.039 0 00-4.023-4.033l-2.69-.007V35.564a1 1 0 00-2 0v2.573l-1.3 0a5.416 5.416 0 100 10.832h1.3V55.8H51.632a2.028 2.028 0 01-2.026-2.026 1 1 0 00-2 0A4.03 4.03 0 0051.632 57.8h2.687v2.57a1 1 0 102 0V57.8h1.3a5.416 5.416 0 100-10.832h-1.3V40.142zm-4.685 6.817h-1.3a3.416 3.416 0 010-6.832l1.3 0zm3.3 2a3.416 3.416 0 110 6.832h-1.3V48.966zM22.57 18.438H16.08a1 1 0 00-1 1v5.94H9.141a1 1 0 00-1 1v6.5a1 1 0 001 1H15.08v5.94a1 1 0 001 1h6.49a1 1 0 001-1v-5.94h5.941a1 1 0 001-1v-6.5a1 1 0 00-1-1H23.57v-5.94A1 1 0 0022.57 18.438zm5.941 8.94v4.5H22.57a1 1 0 00-1 1v5.94H17.08v-5.94a1 1 0 00-1-1H10.141v-4.5H16.08a1 1 0 001-1v-5.94h4.49v5.94a1 1 0 001 1zM90.378 6.3h-6.49a1 1 0 00-1 1v5.94H76.947a1 1 0 00-1 1v6.5a1 1 0 001 1h5.941v5.94a1 1 0 001 1h6.49a1 1 0 001-1v-5.94h5.939a1 1 0 001-1v-6.5a1 1 0 00-1-1H91.378V7.3A1 1 0 0090.378 6.3zm5.939 8.94v4.5H90.378a1 1 0 00-1 1v5.94h-4.49v-5.94a1 1 0 00-1-1H77.947v-4.5h5.941a1 1 0 001-1V8.3h4.49v5.94a1 1 0 001 1z"></path></svg>