<svg width="26" height="24" viewBox="0 0 26 24" fill="none" xmlns="http://www.w3.org/2000/svg">
<path d="M17.948 3.56V2C17.948 1.59 17.5938 1.25 17.1667 1.25C16.7397 1.25 16.3855 1.59 16.3855 2V3.5H9.61466V2C9.61466 1.59 9.26049 1.25 8.83341 1.25C8.40633 1.25 8.05216 1.59 8.05216 2V3.56C5.23966 3.81 3.87508 5.42 3.66674 7.81C3.64591 8.1 3.89591 8.34 4.18758 8.34H21.8126C22.1147 8.34 22.3647 8.09 22.3334 7.81C22.1251 5.42 20.7605 3.81 17.948 3.56Z" fill="#2064F0"/>
<path d="M21.3333 9.83984H4.66667C4.09375 9.83984 3.625 10.2898 3.625 10.8398V16.9998C3.625 19.9998 5.1875 21.9998 8.83333 21.9998H13.9688C14.6875 21.9998 15.1875 21.3298 14.9583 20.6798C14.75 20.0998 14.5729 19.4598 14.5729 18.9998C14.5729 15.9698 17.1458 13.4998 20.3021 13.4998C20.6042 13.4998 20.9062 13.5198 21.1979 13.5698C21.8229 13.6598 22.3854 13.1898 22.3854 12.5898V10.8498C22.375 10.2898 21.9062 9.83984 21.3333 9.83984ZM10.0938 17.7098C9.98958 17.7998 9.875 17.8698 9.75 17.9198C9.625 17.9698 9.48958 17.9998 9.35417 17.9998C9.21875 17.9998 9.08333 17.9698 8.95833 17.9198C8.83333 17.8698 8.71875 17.7998 8.61458 17.7098C8.42708 17.5198 8.3125 17.2598 8.3125 16.9998C8.3125 16.9398 8.32292 16.8698 8.33333 16.8098C8.34375 16.7398 8.36458 16.6798 8.39583 16.6198C8.41667 16.5598 8.44792 16.4998 8.48958 16.4398C8.52083 16.3898 8.57292 16.3398 8.61458 16.2898C8.71875 16.1998 8.83333 16.1298 8.95833 16.0798C9.20833 15.9798 9.5 15.9798 9.75 16.0798C9.875 16.1298 9.98958 16.1998 10.0938 16.2898C10.1354 16.3398 10.1875 16.3898 10.2187 16.4398C10.2604 16.4998 10.2917 16.5598 10.3125 16.6198C10.3438 16.6798 10.3646 16.7398 10.375 16.8098C10.3854 16.8698 10.3958 16.9398 10.3958 16.9998C10.3958 17.2598 10.2812 17.5198 10.0938 17.7098ZM10.0938 14.2098C9.98958 14.2998 9.875 14.3698 9.75 14.4198C9.625 14.4698 9.48958 14.4998 9.35417 14.4998C9.21875 14.4998 9.08333 14.4698 8.95833 14.4198C8.82292 14.3698 8.71875 14.2998 8.61458 14.2098C8.42708 14.0198 8.3125 13.7598 8.3125 13.4998C8.3125 13.2398 8.42708 12.9798 8.61458 12.7898C8.71875 12.6998 8.83333 12.6298 8.95833 12.5798C9.20833 12.4798 9.5 12.4798 9.75 12.5798C9.875 12.6298 9.98958 12.6998 10.0938 12.7898C10.1354 12.8398 10.1875 12.8898 10.2187 12.9398C10.2604 12.9998 10.2917 13.0598 10.3125 13.1198C10.3438 13.1798 10.3646 13.2398 10.375 13.2998C10.3854 13.3698 10.3958 13.4398 10.3958 13.4998C10.3958 13.7598 10.2812 14.0198 10.0938 14.2098ZM13.7396 14.2098C13.5417 14.3898 13.2812 14.4998 13 14.4998C12.8646 14.4998 12.7292 14.4698 12.6042 14.4198C12.4688 14.3698 12.3646 14.2998 12.2604 14.2098C12.0729 14.0198 11.9583 13.7598 11.9583 13.4998C11.9583 13.4398 11.9688 13.3698 11.9792 13.2998C11.9896 13.2398 12.0104 13.1798 12.0417 13.1198C12.0625 13.0598 12.0938 12.9998 12.1354 12.9398C12.1771 12.8898 12.2188 12.8398 12.2604 12.7898C12.6458 12.4198 13.3438 12.4198 13.7396 12.7898C13.7812 12.8398 13.8229 12.8898 13.8646 12.9398C13.9062 12.9998 13.9375 13.0598 13.9583 13.1198C13.9896 13.1798 14.0104 13.2398 14.0208 13.2998C14.0312 13.3698 14.0417 13.4398 14.0417 13.4998C14.0417 13.7598 13.9271 14.0198 13.7396 14.2098Z" fill="#2064F0"/>
<path d="M23.2396 16.17C21.6146 14.61 18.9688 14.61 17.3438 16.17C15.7187 17.73 15.7187 20.27 17.3438 21.83C18.9688 23.39 21.6146 23.39 23.2396 21.83C24.8646 20.27 24.8646 17.73 23.2396 16.17ZM22.4479 19.56C22.3125 19.7 22.1146 19.78 21.8958 19.78H21.125V20.56C21.125 20.77 21.0417 20.95 20.8958 21.09C20.75 21.23 20.5625 21.31 20.3437 21.31C19.9167 21.31 19.5625 20.97 19.5625 20.56V19.78H18.7812C18.3542 19.78 18 19.45 18 19.03C18 18.62 18.3542 18.28 18.7812 18.28H19.5625V17.57C19.5625 17.16 19.9062 16.82 20.3437 16.82C20.7708 16.82 21.125 17.16 21.125 17.57V18.28H21.8958C22.3333 18.28 22.6771 18.62 22.6771 19.03C22.6771 19.24 22.5938 19.43 22.4479 19.56Z" fill="#2064F0"/>
</svg>
