<svg width="361" height="845" viewBox="0 0 361 845" fill="none" xmlns="http://www.w3.org/2000/svg">
<path d="M322.001 267.348C325.616 270.396 330.269 271.929 334.988 271.627C339.706 271.325 344.126 269.212 347.323 265.728C350.52 262.245 352.247 257.66 352.144 252.933C352.041 248.206 350.115 243.701 346.769 240.361C350.644 239.284 354.082 237.016 356.597 233.877C359.112 230.738 360.575 226.887 360.78 222.871C360.985 218.854 359.922 214.874 357.739 211.495C355.557 208.117 352.368 205.51 348.622 204.045C350.467 200.544 351.375 196.625 351.257 192.669C351.14 188.713 350 184.855 347.95 181.47C345.899 178.085 343.008 175.288 339.557 173.351C336.106 171.415 332.212 170.404 328.254 170.418C326.23 165.035 322.464 160.483 317.556 157.487C312.647 154.49 306.878 153.22 301.165 153.879C298.191 151.325 294.476 149.793 290.566 149.505C286.657 149.218 282.758 150.192 279.443 152.284C276.127 154.376 273.57 157.475 272.146 161.128C270.721 164.78 270.506 168.793 271.53 172.577" fill="#263238"/>
<path d="M288.578 167.566L292.061 169.603C309.005 179.506 321.6 195.427 327.336 214.197C333.073 232.966 331.532 253.208 323.02 270.892C306.583 305.008 288.007 342.485 277.579 359.838C255.969 395.747 216.476 380.206 216.476 380.206L194.071 425.484L146.084 435.098L107.854 371.407L192.279 209.198C211.058 169.745 249.635 147.769 288.578 167.566Z" fill="#F3A48A"/>
<path d="M216.476 380.227C216.476 380.227 192.89 368.23 177.512 338.758C177.512 338.758 173.866 371.692 211.872 389.555L216.476 380.227Z" fill="#6F4439"/>
<path d="M329.232 252.296C329.232 252.296 332.939 224.046 325.158 212.375C315.667 198.24 301.491 209.422 290.941 198.525C280.39 187.628 271.347 174.084 252.771 176.324C232.403 178.728 234.664 190.073 224.399 205.634C182.808 268.652 160.159 280.098 174.701 247.469C176.29 243.884 168.591 235.778 175.455 220.767C184.437 201.316 196.78 178.565 208.532 167.811C218.431 158.828 229.165 154.877 245.317 153.085C270.817 150.233 295.381 164.226 310.983 175.489C326.584 186.753 347.339 224.8 329.232 252.296Z" fill="#263238"/>
<path d="M177.553 247.836C178.284 246.482 178.732 244.993 178.872 243.461C179.012 241.929 178.84 240.384 178.365 238.92C177.891 237.456 177.126 236.103 176.114 234.944C175.103 233.784 173.867 232.841 172.481 232.173C165.352 228.853 155.596 228.303 147.897 242.499C134.21 267.715 162.338 276.228 162.766 275.536C163.193 274.843 171.911 258.407 177.553 247.836Z" fill="#F3A48A"/>
<path d="M162.44 263.091C162.44 262.949 161.829 263.091 160.912 263.091C159.625 262.974 158.434 262.361 157.592 261.38C155.555 258.957 155.555 253.518 157.857 248.895C158.962 246.707 160.541 244.793 162.48 243.294C163.144 242.633 163.957 242.144 164.851 241.867C165.745 241.591 166.693 241.535 167.613 241.705C168.191 241.843 168.701 242.18 169.055 242.656C169.409 243.133 169.584 243.719 169.548 244.312C169.548 245.208 169.08 245.616 169.181 245.738C169.283 245.86 169.956 245.616 170.322 244.455C170.505 243.779 170.454 243.062 170.18 242.418C169.993 241.96 169.717 241.543 169.367 241.194C169.017 240.844 168.601 240.567 168.143 240.381C166.997 240.025 165.779 239.969 164.606 240.219C163.433 240.469 162.343 241.015 161.442 241.807C159.196 243.383 157.365 245.479 156.105 247.917C153.519 253.091 153.539 259.242 156.615 262.276C157.18 262.84 157.866 263.269 158.621 263.53C159.376 263.791 160.18 263.877 160.973 263.784C162.053 263.662 162.501 263.173 162.44 263.091Z" fill="#6F4439"/>
<path d="M206.068 200.195C207.982 204.269 210.141 208.505 213.706 211.153C217.27 213.801 223.075 214.168 225.926 210.705C227.21 209.157 227.963 206.917 229.878 206.245C232.159 205.45 234.359 207.406 236.294 208.831C243.056 213.801 256.091 210.868 262.018 204.86C262.183 206.745 263.056 208.497 264.463 209.764C265.869 211.03 267.703 211.716 269.595 211.683C272.699 211.612 275.766 210.999 278.659 209.87C282.284 208.648 286.643 208.22 289.637 210.583C291.307 211.927 292.386 214.005 294.321 214.921C297.743 216.53 301.552 213.659 303.935 210.726C306.318 207.793 308.884 204.249 312.673 204.106C316.156 203.963 318.926 206.835 321.655 209.035C324.384 211.235 328.662 212.783 331.126 210.298C331.714 209.59 332.152 208.77 332.415 207.888C332.677 207.006 332.758 206.079 332.654 205.165C332.389 200.997 330.728 197.039 327.938 193.931C325.148 190.823 321.392 188.746 317.276 188.036C318.464 183.206 318.194 178.132 316.499 173.456C314.804 168.78 311.762 164.711 307.755 161.764C303.748 158.817 298.958 157.124 293.989 156.899C289.021 156.673 284.097 157.926 279.84 160.499C278.604 156.582 276.442 153.021 273.537 150.117C270.632 147.214 267.069 145.054 263.152 143.821C259.234 142.588 255.077 142.317 251.032 143.033C246.988 143.749 243.176 145.429 239.919 147.932C237.353 145.38 234.095 143.637 230.548 142.92C227.001 142.202 223.321 142.54 219.965 143.893C216.608 145.246 213.723 147.554 211.665 150.531C209.608 153.508 208.469 157.023 208.39 160.641C202.442 160.641 196.067 162.678 192.971 167.831C189.875 172.984 191.892 180.907 197.615 182.455C195.257 183.806 193.532 186.037 192.82 188.66C192.107 191.282 192.466 194.08 193.816 196.438C195.167 198.795 197.399 200.52 200.021 201.233C202.643 201.945 205.441 201.587 207.799 200.236" fill="#263238"/>
<path d="M314.934 196.387C314.934 196.387 314.934 196.57 314.649 196.835C314.363 197.099 314.16 197.568 313.732 198.077C312.414 199.552 310.867 200.804 309.149 201.784C306.42 203.343 303.366 204.249 300.228 204.432C296.065 204.738 291.915 203.672 288.415 201.397L289.148 201.092C288.577 203.777 286.966 206.128 284.667 207.63C282.256 209.203 279.628 210.418 276.866 211.235C275.442 211.801 273.96 212.21 272.446 212.457C270.813 212.579 269.175 212.292 267.68 211.622C266.096 210.981 264.693 209.96 263.595 208.649C262.498 207.339 261.739 205.779 261.387 204.106L262.466 204.391C260.609 206.742 258.282 208.68 255.635 210.083C252.987 211.485 250.077 212.322 247.088 212.538C243.722 212.923 240.321 212.209 237.393 210.501C234.724 208.766 232.368 206.589 230.428 204.065H231.263C228.225 206.308 224.676 207.757 220.936 208.281C219.174 208.601 217.363 208.526 215.634 208.061C213.904 207.596 212.3 206.753 210.936 205.593C208.666 203.511 207.054 200.812 206.298 197.827C205.542 194.842 205.674 191.7 206.679 188.789L207.086 189.38C203.674 189.233 200.417 187.917 197.859 185.653C195.931 183.997 194.429 181.901 193.48 179.542C192.881 178.064 192.543 176.493 192.482 174.899C192.458 174.346 192.499 173.792 192.605 173.249C192.666 175.35 193.115 177.421 193.928 179.359C194.926 181.591 196.425 183.563 198.308 185.123C200.772 187.215 203.875 188.407 207.107 188.504H207.718L207.514 189.095C206.606 191.823 206.507 194.756 207.23 197.539C207.953 200.322 209.466 202.836 211.587 204.778C212.835 205.828 214.304 206.583 215.883 206.988C217.463 207.394 219.113 207.439 220.712 207.12C224.244 206.587 227.589 205.188 230.448 203.047L230.896 202.701L231.283 203.128C233.149 205.52 235.4 207.585 237.943 209.239C240.644 210.832 243.789 211.503 246.905 211.153C249.731 210.944 252.482 210.148 254.983 208.815C257.483 207.483 259.678 205.643 261.427 203.413L262.263 202.334L262.507 203.678C262.823 205.154 263.495 206.531 264.464 207.688C265.433 208.845 266.67 209.748 268.067 210.318C269.383 210.912 270.823 211.178 272.263 211.092C273.657 210.853 275.022 210.47 276.337 209.952C279.002 209.192 281.541 208.046 283.873 206.55C285.95 205.208 287.414 203.1 287.946 200.684L288.089 199.971L288.7 200.379C292.01 202.588 295.949 203.661 299.923 203.434C302.96 203.312 305.932 202.512 308.62 201.092C310.986 199.908 313.123 198.315 314.934 196.387Z" fill="#455A64"/>
<path d="M286.541 295.985C286.152 296.666 285.633 297.264 285.013 297.744C284.393 298.224 283.684 298.578 282.928 298.784C282.171 298.99 281.381 299.045 280.603 298.946C279.825 298.847 279.075 298.595 278.394 298.205C277.712 297.867 277.104 297.395 276.606 296.818C276.108 296.241 275.731 295.571 275.495 294.846C275.26 294.121 275.172 293.357 275.236 292.598C275.3 291.839 275.515 291.1 275.868 290.425C276.257 289.744 276.777 289.146 277.397 288.666C278.017 288.186 278.725 287.832 279.482 287.626C280.238 287.42 281.028 287.365 281.806 287.464C282.584 287.564 283.335 287.815 284.015 288.205C284.698 288.544 285.306 289.015 285.804 289.592C286.301 290.169 286.679 290.839 286.914 291.564C287.149 292.289 287.238 293.053 287.173 293.812C287.109 294.571 286.895 295.31 286.541 295.985Z" fill="#263238"/>
<path d="M308.396 285.557C307.357 285.842 305.198 280.648 299.658 277.41C294.118 274.171 288.456 274.456 288.252 273.336C288.252 272.847 289.515 272.033 292.04 271.809C295.419 271.576 298.787 272.402 301.674 274.171C304.547 275.875 306.802 278.451 308.111 281.524C309.027 283.887 308.885 285.435 308.396 285.557Z" fill="#263238"/>
<path d="M223.054 302.544C224.032 303.012 222.24 308.349 224.256 314.459C226.273 320.569 230.774 324.052 230.244 324.948C230.02 325.396 228.452 325.111 226.395 323.624C223.698 321.558 221.701 318.715 220.671 315.477C219.631 312.295 219.631 308.863 220.671 305.68C221.486 303.379 222.606 302.299 223.054 302.544Z" fill="#263238"/>
<path d="M235.947 269.731C235.159 271.076 233.876 272.059 232.373 272.47C230.869 272.881 229.265 272.687 227.902 271.931C227.219 271.592 226.612 271.12 226.114 270.543C225.617 269.966 225.241 269.295 225.007 268.569C224.774 267.844 224.688 267.079 224.755 266.32C224.822 265.561 225.04 264.824 225.397 264.15C226.182 262.808 227.459 261.824 228.958 261.41C230.457 260.995 232.059 261.182 233.422 261.93C234.107 262.269 234.717 262.741 235.217 263.32C235.716 263.898 236.095 264.571 236.33 265.298C236.566 266.025 236.653 266.792 236.587 267.553C236.522 268.315 236.304 269.055 235.947 269.731Z" fill="#263238"/>
<path d="M253.565 254.455C252.527 254.74 250.347 249.526 244.828 246.308C239.308 243.09 233.625 243.355 233.422 242.235C233.299 241.766 234.664 240.951 237.21 240.727C240.589 240.495 243.956 241.32 246.844 243.09C249.717 244.794 251.971 247.37 253.28 250.443C254.278 252.785 254.054 254.333 253.565 254.455Z" fill="#263238"/>
<path d="M247.964 308.674C248.127 308.349 251.895 309.815 257.884 312.422C259.37 313.135 260.878 313.644 261.692 312.829C262.683 311.442 263.229 309.788 263.261 308.084C263.967 303.888 264.72 299.482 265.521 294.865C268.882 276.127 272.202 261.075 272.956 261.217C273.709 261.36 271.611 276.656 268.23 295.395C267.375 299.998 266.56 304.377 265.766 308.573C265.633 310.804 264.717 312.918 263.179 314.54C262.676 314.91 262.097 315.163 261.483 315.279C260.87 315.395 260.239 315.372 259.635 315.212C258.731 314.953 257.862 314.584 257.048 314.113C251.264 311.057 247.781 309 247.964 308.674Z" fill="#263238"/>
<path d="M269.106 234.922C267.701 236.145 262.507 232.295 255.46 229.423C248.413 226.551 242.098 225.35 241.997 223.496C241.997 222.62 243.708 221.704 246.681 221.459C250.559 221.241 254.435 221.91 258.014 223.418C261.594 224.925 264.781 227.23 267.334 230.156C269.208 232.458 269.758 234.332 269.106 234.922Z" fill="#263238"/>
<path d="M315.891 264.374C314.119 265.047 310.799 261.36 305.911 258.468C301.022 255.575 296.358 254.048 296.155 252.174C296.155 251.298 297.499 250.402 300.004 250.259C303.321 250.211 306.579 251.139 309.373 252.928C312.214 254.618 314.49 257.113 315.911 260.097C316.889 262.48 316.706 264.028 315.891 264.374Z" fill="#263238"/>
<path d="M245.52 446.727L208.043 402.652C171.381 401.348 135.941 374.381 129.159 329.857L91.8043 312.626L72.4548 317.697L73.29 714.87C73.29 714.87 180.832 604.15 180.832 602.256C180.832 600.362 245.52 446.727 245.52 446.727Z" fill="#1B1919"/>
<path d="M110.258 591.645L151.217 619.325L207.697 508.931L245.52 447.074C245.52 447.074 273.119 473.715 261.815 525.042C250.51 576.369 227.576 630.547 227.576 630.547L215.233 664.48C215.233 664.48 206.109 697.496 195.375 707.721C184.641 717.946 148.875 725.604 131.501 716.927C114.127 708.25 77.0784 641.2 77.0784 641.2C101.52 626.637 115.777 605.535 110.258 591.645Z" fill="#1B1919"/>
<path d="M225.56 496.16C225.384 496.428 225.193 496.687 224.989 496.934L223.177 499.093L216.272 507.24L191.362 536.183V536.081L168.733 583.925C162.623 596.533 156.941 608.57 151.686 619.549L151.482 618.897C159.366 623.104 166.558 628.496 172.807 634.885C177.723 639.899 181.844 645.635 185.028 651.893C187.09 655.966 188.734 660.238 189.936 664.643C190.364 666.17 190.568 667.393 190.751 668.187C190.861 668.587 190.936 668.996 190.975 669.409C190.811 669.03 190.688 668.633 190.609 668.228C190.364 667.433 190.099 666.191 189.631 664.745C188.308 660.408 186.59 656.201 184.498 652.178C181.281 646.026 177.162 640.39 172.277 635.456C166.011 629.179 158.828 623.891 150.973 619.773L150.565 619.549L150.769 619.121L167.735 583.457C176.086 565.981 184.03 549.605 190.588 535.715L215.865 506.894L222.973 498.89L224.867 496.853C225.072 496.597 225.304 496.365 225.56 496.16Z" fill="#263238"/>
<path d="M109.158 692.71C108.902 692.429 108.676 692.122 108.485 691.793C108.017 691.08 107.406 690.164 106.652 688.982C105.023 686.457 102.742 682.872 99.8903 678.412C94.1262 669.246 86.0605 656.435 76.6505 641.444L76.3655 640.996L76.8339 640.751C86.3338 635.941 94.7756 629.279 101.662 621.158C105.224 616.858 107.984 611.952 109.809 606.676C110.648 604.178 111.169 601.585 111.357 598.957C111.47 597.696 111.47 596.429 111.357 595.168C111.277 594.566 111.141 593.973 110.95 593.396C110.825 592.894 110.565 592.436 110.196 592.072L110.726 591.237L146.696 615.332L156.879 622.319L159.588 624.213C159.914 624.424 160.22 624.662 160.505 624.926C160.151 624.775 159.816 624.583 159.507 624.355L156.696 622.604L146.268 615.842L110.074 592.052L110.604 591.217C111.193 591.69 111.614 592.34 111.805 593.07C112.017 593.734 112.167 594.416 112.254 595.107C112.422 596.458 112.463 597.822 112.376 599.181C112.182 601.896 111.656 604.578 110.807 607.165C109.003 612.55 106.243 617.566 102.66 621.972C95.6857 630.211 87.1152 636.953 77.4653 641.79L77.6487 641.098L100.562 678.249L107.08 688.982L108.791 691.854C108.927 692.133 109.049 692.419 109.158 692.71Z" fill="#263238"/>
<path d="M100.684 582.785L98.5255 583.966L77.0781 601.156C77.0781 601.156 72.8824 615.414 73.0046 616.33C73.1268 617.247 82.8423 637.248 82.8423 637.248C112.294 619.915 111.357 597.449 111.357 597.449C111.357 597.449 101.784 584.292 100.684 582.785Z" fill="#F3A48A"/>
<path d="M72.4549 845C72.1494 845 71.9253 655.824 71.9253 422.531C71.9253 189.237 72.1494 0 72.4549 0C72.7604 0 73.0048 189.156 73.0048 422.551C73.0048 655.946 72.74 845 72.4549 845Z" fill="#263238"/>
<path d="M71.7216 274.518C71.7216 274.518 96.6723 283.174 99.1571 289.773C100.535 294.072 100.162 298.742 98.1184 302.768C98.1184 302.768 101.336 309.795 100.033 315.579C98.7294 321.364 96.6722 321.689 96.6722 321.689C98.3184 322.682 99.5794 324.203 100.249 326.005C100.919 327.806 100.957 329.782 100.359 331.609C99.6367 335.356 97.5997 338.722 94.615 341.1C94.615 341.1 97.5073 349.553 93.8004 355.948C90.0934 362.344 89.2584 369.982 82.2315 370.796C75.2046 371.611 42.84 361.305 40.3551 354.298C37.8702 347.292 48.4004 343.564 48.4004 343.564C48.4004 343.564 27.3604 337.576 27.7678 330.366C28.1752 323.156 35.9149 320.671 35.9149 320.671C35.9149 320.671 29.5195 317.575 34.6725 311.383C39.8256 305.191 49.7448 308.898 54.0831 309.347C54.0831 309.347 53.248 300.262 62.3321 300.874L71.8234 300.67L71.7216 274.518Z" fill="#F3A48A"/>
<path d="M97.0386 304.418C96.8677 305.078 96.6145 305.714 96.285 306.312C95.7351 307.493 94.9001 309.204 93.7798 311.281C93.2299 312.3 92.5985 313.44 91.743 314.601C91.3635 315.286 90.8511 315.889 90.2358 316.373C89.4742 316.681 88.671 316.873 87.8527 316.944C84.4689 317.283 81.0696 317.447 77.6688 317.433C74.0841 317.433 70.6826 317.433 67.4849 317.168C64.7045 316.696 62.062 315.619 59.7451 314.011C58.1547 313.04 56.6306 311.965 55.1828 310.793C54.1644 309.958 53.6552 309.428 53.7163 309.387C54.3256 309.681 54.8995 310.043 55.4272 310.467C56.527 311.18 58.0953 312.218 60.1117 313.379C62.3841 314.794 64.9086 315.755 67.5461 316.211C70.6216 316.373 74.023 316.394 77.5874 316.373C81.1517 316.353 84.5531 316.272 87.5879 315.966C88.2825 315.925 88.968 315.788 89.6247 315.559C90.1287 315.162 90.5507 314.671 90.8672 314.113C91.6412 312.992 92.293 311.913 92.904 310.895C95.5111 306.882 96.896 304.336 97.0386 304.418Z" fill="#6F4439"/>
<path d="M86.0401 290.384C83.4143 292.014 81.086 294.081 79.1558 296.494C78.5414 297.338 78.0093 298.238 77.567 299.183L77.4244 299.489H77.0782C75.078 299.475 73.1006 299.914 71.2937 300.772C71.2937 300.772 71.6604 300.161 72.638 299.59C74.0047 298.806 75.5652 298.425 77.1394 298.49L76.6504 298.796C77.0865 297.771 77.6402 296.801 78.3002 295.904C79.6307 294.03 81.3637 292.478 83.3719 291.362C84.9199 290.486 85.9994 290.262 86.0401 290.384Z" fill="#6F4439"/>
<path d="M79.1151 281.707C79.1151 281.85 78.3412 282.318 77.0784 283.276C75.578 284.519 74.3683 286.077 73.5344 287.838C72.7304 289.609 72.327 291.535 72.353 293.48C72.4191 294.314 72.4191 295.152 72.353 295.985C72.2308 295.985 71.7624 295.13 71.5384 293.541C71.2901 291.44 71.6287 289.312 72.5167 287.392C73.4048 285.472 74.8075 283.836 76.5692 282.665C78.0357 281.809 79.1151 281.585 79.1151 281.707Z" fill="#6F4439"/>
<path d="M96.9369 322.056C96.568 322.89 96.1105 323.682 95.5723 324.419C94.2348 326.525 92.6707 328.478 90.908 330.244C88.26 332.985 84.6895 334.647 80.8871 334.908C76.5487 335.071 72.1696 333.442 67.6072 332.159C58.462 329.409 50.2946 326.517 44.4083 324.378C41.4754 323.319 39.0923 322.341 37.4628 321.791C36.6026 321.501 35.7709 321.133 34.978 320.691C35.8763 320.827 36.7572 321.059 37.6054 321.384L44.6527 323.686C50.6001 325.722 58.788 328.39 67.9128 331.14C72.4955 332.444 76.8338 334.053 80.8463 333.931C84.4364 333.713 87.8279 332.209 90.3988 329.694C92.1763 328.009 93.7924 326.161 95.226 324.174C95.735 323.421 96.3074 322.712 96.9369 322.056Z" fill="#6F4439"/>
<path d="M95.6944 341.67C95.406 342.264 95.0432 342.818 94.6149 343.32C93.5423 344.775 92.35 346.137 91.0505 347.394C89.1329 349.283 86.8632 350.778 84.3699 351.793C81.2597 352.936 77.9135 353.286 74.634 352.811C71.3993 352.357 68.2366 351.488 65.2241 350.225C62.4541 349.125 60.0099 348.025 57.9528 347.149C53.8792 345.357 51.1907 344.624 51.2314 344.461C51.9251 344.46 52.6138 344.577 53.2682 344.807C54.9871 345.265 56.6801 345.816 58.3398 346.457C62.5559 347.944 68.157 350.856 74.858 351.752C77.9723 352.223 81.1546 351.922 84.1255 350.877C86.5341 349.927 88.7495 348.546 90.6635 346.803C93.8612 343.788 95.5315 341.528 95.6944 341.67Z" fill="#6F4439"/>
<path d="M17.482 534.492C17.482 534.492 12.553 527.038 22.2481 523.249C31.9432 519.461 50.926 513.269 56.8734 512.719C62.8208 512.169 93.9835 519.889 93.9835 519.889C93.9835 519.889 104.941 523.107 104.799 530.989L102.762 538.424C105.312 541.346 106.716 545.095 106.713 548.974C106.39 552.565 105.125 556.008 103.047 558.954L101.784 584.292C101.784 584.292 100.664 602.623 93.6373 610.016C86.6104 617.41 75.0822 615.495 75.0822 615.495L73.0455 616.249C73.0455 616.249 59.5416 605.922 63.2078 592.867L47.9319 582.479C47.9319 582.479 15.4655 577.978 13.775 569.26L14.3454 564.759C14.3454 564.759 2.26727 562.946 2.26727 554.575V550.359C1.1478 549.269 0.396764 547.857 0.119226 546.32C-0.158311 544.782 0.0515031 543.197 0.719296 541.784C3.10233 536.855 5.48537 535.307 10.9032 535.185C13.1185 535.287 15.3365 535.054 17.482 534.492Z" fill="#F3A48A"/>
<path d="M73.7991 570.808C70.8571 570.907 67.9157 570.591 65.0613 569.871C62.3727 569.403 59.2158 568.751 55.6921 568.059C53.9405 567.712 52.087 567.346 50.1928 567.081C48.2986 566.816 46.2618 566.816 44.2046 566.653C35.9353 566.144 28.4603 565.594 23.0424 565.166L16.647 564.596C15.8541 564.572 15.0672 564.449 14.3047 564.23C15.0896 564.138 15.8825 564.138 16.6674 564.23L23.1036 564.474C28.5214 564.718 35.9964 565.146 44.2454 565.655C46.2822 565.818 48.319 565.879 50.3558 566.124C52.3925 566.368 54.1441 566.796 55.9161 567.162L65.2243 569.199C67.8721 569.79 70.0107 570.197 71.4976 570.462C72.2726 570.517 73.0422 570.633 73.7991 570.808Z" fill="#6F4439"/>
<path d="M77.9744 553.129C76.9856 553.298 75.9783 553.333 74.9802 553.231C73.0657 553.231 70.2956 552.986 66.8331 552.701C63.3706 552.416 59.3379 552.05 54.8366 551.601L47.7485 550.889C45.3247 550.664 42.7584 550.644 40.1513 550.563C29.7026 550.42 20.2315 550.563 13.3676 550.563H5.22045C4.22706 550.588 3.23326 550.54 2.24683 550.42C3.22464 550.216 4.22177 550.121 5.22045 550.135C7.13502 550.135 9.90505 549.931 13.3676 549.829C20.2315 549.626 29.6619 549.402 40.1921 549.544C42.8195 549.544 45.3654 549.646 47.8707 549.89L54.9588 550.664L66.9147 552.009L75.0618 552.844C76.0372 552.885 77.0096 552.98 77.9744 553.129Z" fill="#6F4439"/>
<path d="M83.9829 533.841C83.1565 534.178 82.2681 534.338 81.3758 534.309C78.9755 534.374 76.5736 534.279 74.186 534.024C71.1716 533.759 67.5869 533.291 63.6355 532.843C59.3682 532.283 55.0667 532.024 50.763 532.069C48.5378 532.178 46.3207 532.416 44.1231 532.782C41.9437 533.087 39.8662 533.291 37.8701 533.474C33.7966 533.82 30.2729 534.044 27.2585 534.228C24.244 534.411 21.8 534.493 20.1095 534.533C19.2363 534.63 18.3551 534.63 17.4819 534.533C18.3336 534.309 19.2087 534.186 20.0891 534.167L27.2178 533.515L37.7683 532.537C39.8051 532.334 41.8419 532.11 43.8787 531.804C46.101 531.411 48.3459 531.159 50.6 531.05C54.9673 531.008 59.3314 531.294 63.6558 531.906L74.1656 533.311C77.1597 533.678 79.5834 533.902 81.274 533.943C82.9645 533.983 83.9422 533.759 83.9829 533.841Z" fill="#6F4439"/>
</svg>
