<svg width="65" height="65" viewBox="0 0 65 65" fill="none" xmlns="http://www.w3.org/2000/svg">
<rect x="0.5" y="0.5" width="64" height="64" rx="8" fill="white"/>
<path d="M42.5 26.5H38.5V23.5C38.5 21.9087 37.8679 20.3826 36.7426 19.2574C35.6174 18.1321 34.0913 17.5 32.5 17.5C30.9087 17.5 29.3826 18.1321 28.2574 19.2574C27.1321 20.3826 26.5 21.9087 26.5 23.5V26.5H22.5C21.9696 26.5 21.4609 26.7107 21.0858 27.0858C20.7107 27.4609 20.5 27.9696 20.5 28.5V42.5C20.5 43.0304 20.7107 43.5391 21.0858 43.9142C21.4609 44.2893 21.9696 44.5 22.5 44.5H42.5C43.0304 44.5 43.5391 44.2893 43.9142 43.9142C44.2893 43.5391 44.5 43.0304 44.5 42.5V28.5C44.5 27.9696 44.2893 27.4609 43.9142 27.0858C43.5391 26.7107 43.0304 26.5 42.5 26.5ZM28.5 23.5C28.5 22.4391 28.9214 21.4217 29.6716 20.6716C30.4217 19.9214 31.4391 19.5 32.5 19.5C33.5609 19.5 34.5783 19.9214 35.3284 20.6716C36.0786 21.4217 36.5 22.4391 36.5 23.5V26.5H28.5V23.5ZM42.5 42.5H22.5V28.5H42.5V42.5Z" fill="#C00000"/>
</svg>
