<svg width="14" height="14" viewBox="0 0 14 14" fill="none" xmlns="http://www.w3.org/2000/svg">
<path d="M7.00016 0.333496C3.32683 0.333496 0.333496 3.32683 0.333496 7.00016C0.333496 10.6735 3.32683 13.6668 7.00016 13.6668C10.6735 13.6668 13.6668 10.6735 13.6668 7.00016C13.6668 3.32683 10.6735 0.333496 7.00016 0.333496ZM4.3335 7.66683C3.96016 7.66683 3.66683 7.36683 3.66683 7.00016C3.66683 6.6335 3.96683 6.3335 4.3335 6.3335C4.70016 6.3335 5.00016 6.6335 5.00016 7.00016C5.00016 7.36683 4.70683 7.66683 4.3335 7.66683ZM7.00016 7.66683C6.62683 7.66683 6.3335 7.36683 6.3335 7.00016C6.3335 6.6335 6.6335 6.3335 7.00016 6.3335C7.36683 6.3335 7.66683 6.6335 7.66683 7.00016C7.66683 7.36683 7.3735 7.66683 7.00016 7.66683ZM9.66683 7.66683C9.2935 7.66683 9.00016 7.36683 9.00016 7.00016C9.00016 6.6335 9.30016 6.3335 9.66683 6.3335C10.0335 6.3335 10.3335 6.6335 10.3335 7.00016C10.3335 7.36683 10.0402 7.66683 9.66683 7.66683Z" fill="#7E8B99"/>
</svg>
