<svg width="24" height="18" viewBox="0 0 24 18" fill="none" xmlns="http://www.w3.org/2000/svg">
<path d="M22.9503 10.0999C22.8715 10.159 22.7818 10.202 22.6864 10.2265C22.591 10.2509 22.4917 10.2563 22.3942 10.2424C22.2967 10.2285 22.2029 10.1955 22.1182 10.1453C22.0334 10.0951 21.9594 10.0287 21.9003 9.94992C21.4482 9.34229 20.8598 8.84929 20.1824 8.5106C19.5051 8.1719 18.7576 7.99698 18.0003 7.99992C17.8528 7.99991 17.7086 7.95641 17.5857 7.87487C17.4628 7.79333 17.3667 7.67737 17.3093 7.54149C17.2704 7.44921 17.2504 7.35007 17.2504 7.24992C17.2504 7.14977 17.2704 7.05063 17.3093 6.95836C17.3667 6.82248 17.4628 6.70651 17.5857 6.62497C17.7086 6.54343 17.8528 6.49994 18.0003 6.49992C18.4211 6.49989 18.8335 6.38184 19.1906 6.15918C19.5477 5.93653 19.8351 5.61819 20.0204 5.24034C20.2056 4.86248 20.2812 4.44025 20.2385 4.02161C20.1958 3.60296 20.0365 3.20468 19.7788 2.87201C19.5211 2.53933 19.1753 2.2856 18.7806 2.13963C18.3859 1.99365 17.9582 1.96129 17.546 2.04622C17.1338 2.13115 16.7538 2.32996 16.4489 2.62007C16.1441 2.91018 15.9267 3.27997 15.8215 3.68742C15.7969 3.78284 15.7537 3.87247 15.6945 3.95119C15.6352 4.02992 15.561 4.09621 15.4761 4.14626C15.3913 4.19632 15.2974 4.22917 15.1998 4.24293C15.1022 4.2567 15.0029 4.25111 14.9075 4.22649C14.8121 4.20186 14.7224 4.15869 14.6437 4.09943C14.565 4.04016 14.4987 3.96598 14.4486 3.8811C14.3986 3.79622 14.3657 3.70231 14.352 3.60474C14.3382 3.50717 14.3438 3.40784 14.3684 3.31242C14.5144 2.7474 14.7903 2.22426 15.1741 1.78463C15.5579 1.34499 16.039 1.00099 16.5791 0.780002C17.1192 0.559012 17.7034 0.467131 18.2853 0.511671C18.8672 0.55621 19.4307 0.73594 19.9309 1.03656C20.431 1.33718 20.8542 1.75039 21.1666 2.24332C21.479 2.73624 21.672 3.29527 21.7303 3.87593C21.7887 4.45659 21.7107 5.04285 21.5026 5.58806C21.2944 6.13327 20.9619 6.62239 20.5315 7.01649C21.5514 7.45804 22.4379 8.15875 23.1031 9.04899C23.1622 9.12798 23.2051 9.21785 23.2294 9.31346C23.2537 9.40907 23.2589 9.50854 23.2447 9.60616C23.2305 9.70378 23.1972 9.79764 23.1467 9.88237C23.0962 9.9671 23.0294 10.041 22.9503 10.0999ZM17.899 15.8749C17.9533 15.9603 17.9897 16.0557 18.0062 16.1556C18.0226 16.2554 18.0186 16.3575 17.9946 16.4557C17.9705 16.554 17.9268 16.6463 17.8661 16.7272C17.8054 16.8082 17.729 16.876 17.6414 16.9266C17.5539 16.9772 17.4569 17.0096 17.3565 17.0218C17.2561 17.034 17.1543 17.0258 17.0571 16.9976C16.96 16.9694 16.8695 16.9219 16.7912 16.8578C16.713 16.7938 16.6484 16.7146 16.6015 16.6249C16.1291 15.8249 15.4562 15.1619 14.6493 14.7014C13.8424 14.2408 12.9294 13.9986 12.0003 13.9986C11.0712 13.9986 10.1582 14.2408 9.35126 14.7014C8.54436 15.1619 7.87149 15.8249 7.39903 16.6249C7.35215 16.7146 7.28762 16.7938 7.20932 16.8578C7.13102 16.9219 7.04058 16.9694 6.94344 16.9976C6.84629 17.0258 6.74445 17.034 6.64403 17.0218C6.54362 17.0096 6.44671 16.9772 6.35914 16.9266C6.27156 16.876 6.19513 16.8082 6.13445 16.7272C6.07376 16.6463 6.03007 16.554 6.00601 16.4557C5.98194 16.3575 5.978 16.2554 5.99441 16.1556C6.01083 16.0557 6.04727 15.9603 6.10153 15.8749C6.82866 14.6256 7.93734 13.6424 9.26466 13.0699C8.51778 12.4981 7.96887 11.7066 7.6951 10.8066C7.42132 9.90671 7.43644 8.9436 7.73833 8.05271C8.04022 7.16181 8.6137 6.38792 9.37816 5.83981C10.1426 5.29169 11.0596 4.99692 12.0003 4.99692C12.9409 4.99692 13.8579 5.29169 14.6224 5.83981C15.3869 6.38792 15.9603 7.16181 16.2622 8.05271C16.5641 8.9436 16.5792 9.90671 16.3055 10.8066C16.0317 11.7066 15.4828 12.4981 14.7359 13.0699C16.0632 13.6424 17.1719 14.6256 17.899 15.8749ZM12.0003 12.4999C12.5936 12.4999 13.1736 12.324 13.667 11.9943C14.1603 11.6647 14.5449 11.1962 14.7719 10.648C14.999 10.0998 15.0584 9.49659 14.9426 8.91465C14.8269 8.33271 14.5412 7.79816 14.1216 7.3786C13.702 6.95904 13.1675 6.67332 12.5856 6.55757C12.0036 6.44181 11.4004 6.50122 10.8522 6.72828C10.3041 6.95535 9.83552 7.33987 9.50588 7.83321C9.17623 8.32656 9.00028 8.90658 9.00028 9.49992C9.00028 10.2956 9.31635 11.0586 9.87896 11.6212C10.4416 12.1839 11.2046 12.4999 12.0003 12.4999ZM6.75028 7.24992C6.75028 7.05101 6.67127 6.86025 6.53061 6.71959C6.38996 6.57894 6.1992 6.49992 6.00028 6.49992C5.57947 6.49989 5.16709 6.38184 4.81 6.15918C4.45292 5.93653 4.16543 5.61819 3.98019 5.24034C3.79495 4.86248 3.71939 4.44025 3.7621 4.02161C3.8048 3.60296 3.96405 3.20468 4.22176 2.87201C4.47947 2.53933 4.82531 2.2856 5.22 2.13963C5.61469 1.99365 6.04241 1.96129 6.45456 2.04622C6.86672 2.13115 7.2468 2.32996 7.55164 2.62007C7.85647 2.91018 8.07383 3.27997 8.17903 3.68742C8.22876 3.88012 8.353 4.04517 8.52442 4.14626C8.69584 4.24736 8.9004 4.27621 9.0931 4.22649C9.28579 4.17676 9.45084 4.05252 9.55194 3.8811C9.65303 3.70968 9.68189 3.50512 9.63216 3.31242C9.48614 2.7474 9.21026 2.22426 8.82648 1.78463C8.4427 1.34499 7.96161 1.00099 7.42149 0.780002C6.88137 0.559012 6.29712 0.467131 5.71524 0.511671C5.13336 0.55621 4.56991 0.73594 4.06972 1.03656C3.56952 1.33718 3.14639 1.75039 2.83399 2.24332C2.52159 2.73624 2.32855 3.29527 2.27022 3.87593C2.2119 4.45659 2.2899 5.04285 2.49801 5.58806C2.70613 6.13327 3.03862 6.62239 3.46903 7.01649C2.45024 7.45846 1.5647 8.15913 0.900284 9.04899C0.780813 9.20812 0.729448 9.40819 0.757491 9.60519C0.785533 9.80219 0.890686 9.97998 1.04982 10.0995C1.20895 10.2189 1.40902 10.2703 1.60602 10.2422C1.80302 10.2142 1.98081 10.1091 2.10028 9.94992C2.55233 9.34229 3.14073 8.84929 3.81812 8.5106C4.49551 8.1719 5.24295 7.99698 6.00028 7.99992C6.1992 7.99992 6.38996 7.92091 6.53061 7.78025C6.67127 7.6396 6.75028 7.44884 6.75028 7.24992Z" fill="#222222"/>
</svg>
