<svg width="20" height="18" viewBox="0 0 20 18" fill="none" xmlns="http://www.w3.org/2000/svg">
<path d="M18.25 0.75H1.75C1.35218 0.75 0.970644 0.908035 0.68934 1.18934C0.408035 1.47064 0.25 1.85218 0.25 2.25V15.75C0.25 16.1478 0.408035 16.5294 0.68934 16.8107C0.970644 17.092 1.35218 17.25 1.75 17.25H3.00531C3.14726 17.25 3.2863 17.2098 3.40628 17.134C3.52627 17.0581 3.62227 16.9498 3.68313 16.8216C4.04783 16.0516 4.62364 15.4009 5.34357 14.9453C6.06351 14.4897 6.898 14.2478 7.75 14.2478C8.602 14.2478 9.43649 14.4897 10.1564 14.9453C10.8764 15.4009 11.4522 16.0516 11.8169 16.8216C11.8777 16.9498 11.9737 17.0581 12.0937 17.134C12.2137 17.2098 12.3527 17.25 12.4947 17.25H18.25C18.6478 17.25 19.0294 17.092 19.3107 16.8107C19.592 16.5294 19.75 16.1478 19.75 15.75V2.25C19.75 1.85218 19.592 1.47064 19.3107 1.18934C19.0294 0.908035 18.6478 0.75 18.25 0.75ZM5.5 10.5C5.5 10.055 5.63196 9.61998 5.87919 9.24997C6.12643 8.87996 6.47783 8.59157 6.88896 8.42127C7.3001 8.25097 7.7525 8.20642 8.18895 8.29323C8.62541 8.38005 9.02632 8.59434 9.34099 8.90901C9.65566 9.22368 9.86995 9.62459 9.95677 10.061C10.0436 10.4975 9.99903 10.9499 9.82873 11.361C9.65843 11.7722 9.37004 12.1236 9.00003 12.3708C8.63002 12.618 8.19501 12.75 7.75 12.75C7.15326 12.75 6.58097 12.5129 6.15901 12.091C5.73705 11.669 5.5 11.0967 5.5 10.5ZM18.25 15.75H12.9466C12.3203 14.6732 11.3762 13.8165 10.2438 13.2975C10.8115 12.792 11.2122 12.1258 11.3927 11.3874C11.5732 10.649 11.5251 9.87311 11.2546 9.16267C10.9842 8.45222 10.5042 7.84075 9.87831 7.40931C9.25242 6.97787 8.51018 6.74684 7.75 6.74684C6.98982 6.74684 6.24758 6.97787 5.6217 7.40931C4.99581 7.84075 4.51582 8.45222 4.24536 9.16267C3.9749 9.87311 3.92675 10.649 4.10728 11.3874C4.28782 12.1258 4.68851 12.792 5.25625 13.2975C4.12385 13.8165 3.17975 14.6732 2.55344 15.75H1.75V2.25H18.25V15.75ZM3.25 6V4.5C3.25 4.30109 3.32902 4.11032 3.46967 3.96967C3.61032 3.82902 3.80109 3.75 4 3.75H16C16.1989 3.75 16.3897 3.82902 16.5303 3.96967C16.671 4.11032 16.75 4.30109 16.75 4.5V13.5C16.75 13.6989 16.671 13.8897 16.5303 14.0303C16.3897 14.171 16.1989 14.25 16 14.25H14.5C14.3011 14.25 14.1103 14.171 13.9697 14.0303C13.829 13.8897 13.75 13.6989 13.75 13.5C13.75 13.3011 13.829 13.1103 13.9697 12.9697C14.1103 12.829 14.3011 12.75 14.5 12.75H15.25V5.25H4.75V6C4.75 6.19891 4.67098 6.38968 4.53033 6.53033C4.38968 6.67098 4.19891 6.75 4 6.75C3.80109 6.75 3.61032 6.67098 3.46967 6.53033C3.32902 6.38968 3.25 6.19891 3.25 6Z" fill="#222222"/>
</svg>
