<svg width="22" height="17" viewBox="0 0 22 17" fill="none" xmlns="http://www.w3.org/2000/svg">
<path d="M20.9688 6.3725C20.8295 6.17951 20.6464 6.0224 20.4345 5.91416C20.2226 5.80592 19.988 5.74965 19.75 5.75H18.25V4.25C18.25 3.85218 18.092 3.47064 17.8107 3.18934C17.5294 2.90804 17.1478 2.75 16.75 2.75H10.2503L7.65063 0.8C7.39054 0.606109 7.07503 0.500938 6.75062 0.5H1.75C1.35218 0.5 0.970644 0.658035 0.68934 0.93934C0.408035 1.22064 0.25 1.60218 0.25 2V15.5C0.25 15.6989 0.329018 15.8897 0.46967 16.0303C0.610322 16.171 0.801088 16.25 1 16.25H17.7906C17.948 16.25 18.1015 16.2005 18.2292 16.1085C18.3569 16.0164 18.4524 15.8865 18.5022 15.7372L21.1731 7.72437C21.2482 7.49891 21.2689 7.25886 21.2334 7.02388C21.1978 6.78891 21.1072 6.56569 20.9688 6.3725ZM6.75062 2L9.35031 3.95C9.61033 4.14401 9.92589 4.2492 10.2503 4.25H16.75V5.75H4.54094C4.2261 5.74998 3.91924 5.84902 3.66382 6.03309C3.4084 6.21717 3.21738 6.47695 3.11781 6.77563L1.75 10.8781V2H6.75062ZM17.2506 14.75H2.04062L4.54094 7.25H19.75L17.2506 14.75Z" fill="#222222"/>
</svg>
