<svg width="10" height="2" viewBox="0 0 10 2" fill="none" xmlns="http://www.w3.org/2000/svg">
<path d="M5.75 1C5.75 1.14834 5.70601 1.29334 5.6236 1.41668C5.54119 1.54001 5.42406 1.63614 5.28701 1.69291C5.14997 1.74967 4.99917 1.76453 4.85368 1.73559C4.7082 1.70665 4.57456 1.63522 4.46967 1.53033C4.36478 1.42544 4.29335 1.2918 4.26441 1.14632C4.23547 1.00083 4.25033 0.850032 4.30709 0.712987C4.36386 0.575943 4.45999 0.458809 4.58332 0.376398C4.70666 0.293987 4.85166 0.25 5 0.25C5.19891 0.25 5.38968 0.329018 5.53033 0.46967C5.67098 0.610322 5.75 0.801088 5.75 1ZM9.25 0.25C9.10166 0.25 8.95666 0.293987 8.83332 0.376398C8.70999 0.458809 8.61386 0.575943 8.55709 0.712987C8.50033 0.850032 8.48547 1.00083 8.51441 1.14632C8.54335 1.2918 8.61478 1.42544 8.71967 1.53033C8.82456 1.63522 8.9582 1.70665 9.10368 1.73559C9.24917 1.76453 9.39997 1.74967 9.53701 1.69291C9.67406 1.63614 9.79119 1.54001 9.8736 1.41668C9.95601 1.29334 10 1.14834 10 1C10 0.801088 9.92098 0.610322 9.78033 0.46967C9.63968 0.329018 9.44891 0.25 9.25 0.25ZM0.75 0.25C0.601664 0.25 0.45666 0.293987 0.333323 0.376398C0.209986 0.458809 0.113856 0.575943 0.0570907 0.712987C0.000324965 0.850032 -0.0145275 1.00083 0.0144114 1.14632C0.0433503 1.2918 0.114781 1.42544 0.21967 1.53033C0.32456 1.63522 0.458197 1.70665 0.603683 1.73559C0.749168 1.76453 0.899968 1.74967 1.03701 1.69291C1.17406 1.63614 1.29119 1.54001 1.3736 1.41668C1.45601 1.29334 1.5 1.14834 1.5 1C1.5 0.801088 1.42098 0.610322 1.28033 0.46967C1.13968 0.329018 0.948913 0.25 0.75 0.25Z" fill="#A6A6A6"/>
</svg>
