<svg width="65" height="65" viewBox="0 0 65 65" fill="none" xmlns="http://www.w3.org/2000/svg">
<rect x="0.5" y="0.5" width="64" height="64" rx="8" fill="white"/>
<path d="M32.5 19.5C29.9288 19.5 27.4154 20.2624 25.2776 21.6909C23.1398 23.1194 21.4735 25.1497 20.4896 27.5251C19.5056 29.9006 19.2482 32.5144 19.7498 35.0362C20.2514 37.5579 21.4895 39.8743 23.3076 41.6924C25.1257 43.5105 27.4421 44.7486 29.9638 45.2502C32.4856 45.7518 35.0995 45.4944 37.4749 44.5104C39.8503 43.5265 41.8807 41.8603 43.3091 39.7224C44.7376 37.5846 45.5 35.0712 45.5 32.5C45.4964 29.0533 44.1256 25.7488 41.6884 23.3116C39.2512 20.8744 35.9467 19.5036 32.5 19.5ZM25.76 41.1875C26.4834 40.0561 27.48 39.125 28.6579 38.4801C29.8358 37.8351 31.1571 37.4971 32.5 37.4971C33.8429 37.4971 35.1642 37.8351 36.3421 38.4801C37.52 39.125 38.5166 40.0561 39.24 41.1875C37.3129 42.6862 34.9413 43.4999 32.5 43.4999C30.0587 43.4999 27.6871 42.6862 25.76 41.1875ZM28.5 31.5C28.5 30.7089 28.7346 29.9355 29.1741 29.2777C29.6137 28.6199 30.2384 28.1072 30.9693 27.8045C31.7002 27.5017 32.5044 27.4225 33.2804 27.5769C34.0563 27.7312 34.769 28.1122 35.3284 28.6716C35.8878 29.231 36.2688 29.9437 36.4231 30.7196C36.5775 31.4956 36.4983 32.2998 36.1955 33.0307C35.8928 33.7616 35.3801 34.3864 34.7223 34.8259C34.0645 35.2654 33.2911 35.5 32.5 35.5C31.4391 35.5 30.4217 35.0786 29.6716 34.3284C28.9214 33.5783 28.5 32.5609 28.5 31.5ZM40.72 39.8013C39.6047 38.1851 38.0365 36.9348 36.2125 36.2075C37.1923 35.4358 37.9072 34.378 38.2579 33.1811C38.6086 31.9843 38.5776 30.7079 38.1693 29.5294C37.7609 28.351 36.9955 27.3291 35.9794 26.6059C34.9634 25.8826 33.7472 25.494 32.5 25.494C31.2528 25.494 30.0366 25.8826 29.0206 26.6059C28.0045 27.3291 27.2391 28.351 26.8307 29.5294C26.4224 30.7079 26.3914 31.9843 26.7421 33.1811C27.0928 34.378 27.8077 35.4358 28.7875 36.2075C26.9635 36.9348 25.3953 38.1851 24.28 39.8013C22.8707 38.2165 21.9496 36.2581 21.6276 34.1619C21.3055 32.0657 21.5963 29.9211 22.4649 27.9864C23.3335 26.0516 24.7428 24.4092 26.5233 23.2569C28.3037 22.1046 30.3792 21.4916 32.5 21.4916C34.6208 21.4916 36.6963 22.1046 38.4768 23.2569C40.2572 24.4092 41.6665 26.0516 42.5351 27.9864C43.4037 29.9211 43.6945 32.0657 43.3724 34.1619C43.0504 36.2581 42.1293 38.2165 40.72 39.8013Z" fill="#C00000"/>
</svg>
