<svg width="23" height="22" viewBox="0 0 23 22" fill="none" xmlns="http://www.w3.org/2000/svg">
<path d="M11.4992 21.7999C17.4639 21.7999 22.2992 16.9646 22.2992 11C22.2992 5.03528 17.4639 0.199951 11.4992 0.199951C5.53454 0.199951 0.699219 5.03528 0.699219 11C0.699219 16.9646 5.53454 21.7999 11.4992 21.7999Z" fill="#1977F3"/>
<path d="M15.7045 14.1224L16.183 10.9998H13.1879V8.9738C13.1879 8.12025 13.6056 7.28644 14.9482 7.28644H16.3105V4.62859C16.3105 4.62859 15.0743 4.41748 13.8926 4.41748C11.4262 4.41748 9.81322 5.91195 9.81322 8.61993V10.9998H7.07031V14.1224H9.81322V21.6692C10.363 21.7558 10.9265 21.7998 11.5006 21.7998C12.0747 21.7998 12.6381 21.7543 13.1879 21.6692V14.1224H15.7045Z" fill="white"/>
</svg>
