<svg width="24" height="17" viewBox="0 0 24 17" fill="none" xmlns="http://www.w3.org/2000/svg">
<path d="M2.25 12.75V2.25C2.25 1.85218 2.40804 1.47064 2.68934 1.18934C2.97064 0.908035 3.35218 0.75 3.75 0.75H20.25C20.6478 0.75 21.0294 0.908035 21.3107 1.18934C21.592 1.47064 21.75 1.85218 21.75 2.25V12.75C21.75 12.9489 21.671 13.1397 21.5303 13.2803C21.3897 13.421 21.1989 13.5 21 13.5C20.8011 13.5 20.6103 13.421 20.4697 13.2803C20.329 13.1397 20.25 12.9489 20.25 12.75V2.25H3.75V12.75C3.75 12.9489 3.67098 13.1397 3.53033 13.2803C3.38968 13.421 3.19891 13.5 3 13.5C2.80109 13.5 2.61032 13.421 2.46967 13.2803C2.32902 13.1397 2.25 12.9489 2.25 12.75ZM23.25 15.75C23.25 15.9489 23.171 16.1397 23.0303 16.2803C22.8897 16.421 22.6989 16.5 22.5 16.5H1.5C1.30109 16.5 1.11032 16.421 0.96967 16.2803C0.829018 16.1397 0.75 15.9489 0.75 15.75C0.75 15.5511 0.829018 15.3603 0.96967 15.2197C1.11032 15.079 1.30109 15 1.5 15H10.5V12.75C10.5 12.5511 10.579 12.3603 10.7197 12.2197C10.8603 12.079 11.0511 12 11.25 12H17.25C17.4489 12 17.6397 12.079 17.7803 12.2197C17.921 12.3603 18 12.5511 18 12.75V15H22.5C22.6989 15 22.8897 15.079 23.0303 15.2197C23.171 15.3603 23.25 15.5511 23.25 15.75ZM12 15H16.5V13.5H12V15Z" fill="#222222"/>
</svg>
