<svg width="14" height="11" viewBox="0 0 14 11" fill="none" xmlns="http://www.w3.org/2000/svg">
<path d="M13.3538 3.85378L10.3538 6.85378C10.2599 6.9476 10.1327 7.00031 10 7.00031C9.86732 7.00031 9.74007 6.9476 9.64625 6.85378C9.55243 6.75996 9.49972 6.63272 9.49972 6.50003C9.49972 6.36735 9.55243 6.2401 9.64625 6.14628L11.7931 4.00003H9.3125C8.09291 3.9997 6.9078 4.40473 5.94353 5.15144C4.97926 5.89814 4.29052 6.94417 3.98562 8.12503C3.95247 8.2535 3.86965 8.36353 3.75537 8.43093C3.64109 8.49832 3.50471 8.51756 3.37625 8.48441C3.24779 8.45126 3.13775 8.36843 3.07036 8.25415C3.00296 8.13987 2.98372 8.0035 3.01687 7.87503C3.37663 6.47911 4.19047 5.2425 5.33024 4.35993C6.47001 3.47735 7.87097 2.99894 9.3125 3.00003H11.7944L9.64625 0.853784C9.59979 0.807329 9.56295 0.752179 9.5378 0.691482C9.51266 0.630786 9.49972 0.565731 9.49972 0.500034C9.49972 0.434336 9.51266 0.369282 9.5378 0.308586C9.56295 0.247889 9.59979 0.192739 9.64625 0.146284C9.74007 0.0524635 9.86732 -0.000244141 10 -0.000244141C10.0657 -0.000244141 10.1308 0.0126959 10.1914 0.0378373C10.2521 0.0629786 10.3073 0.0998287 10.3538 0.146284L13.3538 3.14628C13.4002 3.19272 13.4371 3.24786 13.4623 3.30856C13.4874 3.36926 13.5004 3.43433 13.5004 3.50003C13.5004 3.56574 13.4874 3.63081 13.4623 3.6915C13.4371 3.7522 13.4002 3.80735 13.3538 3.85378ZM11 10H1.5V2.50003C1.5 2.36743 1.44732 2.24025 1.35355 2.14648C1.25979 2.05271 1.13261 2.00003 1 2.00003C0.867392 2.00003 0.740215 2.05271 0.646447 2.14648C0.552678 2.24025 0.5 2.36743 0.5 2.50003V10C0.5 10.2653 0.605357 10.5196 0.792893 10.7071C0.98043 10.8947 1.23478 11 1.5 11H11C11.1326 11 11.2598 10.9474 11.3536 10.8536C11.4473 10.7598 11.5 10.6326 11.5 10.5C11.5 10.3674 11.4473 10.2402 11.3536 10.1465C11.2598 10.0527 11.1326 10 11 10Z" fill="#C00000"/>
</svg>
