<svg width="20" height="19" viewBox="0 0 20 19" fill="none" xmlns="http://www.w3.org/2000/svg">
<path d="M19.4163 6.37562L10.4163 0.375624C10.293 0.293395 10.1482 0.249512 10 0.249512C9.85184 0.249512 9.707 0.293395 9.58375 0.375624L0.58375 6.37562C0.48101 6.44417 0.396789 6.53703 0.338565 6.64595C0.280342 6.75488 0.24992 6.87649 0.25 7V16.75C0.25 17.1478 0.408035 17.5294 0.68934 17.8107C0.970644 18.092 1.35218 18.25 1.75 18.25H18.25C18.6478 18.25 19.0294 18.092 19.3107 17.8107C19.592 17.5294 19.75 17.1478 19.75 16.75V7C19.7501 6.87649 19.7197 6.75488 19.6614 6.64595C19.6032 6.53703 19.519 6.44417 19.4163 6.37562ZM7.0675 12.25L1.75 16V8.45594L7.0675 12.25ZM8.60219 13H11.3978L16.7069 16.75H3.29312L8.60219 13ZM12.9325 12.25L18.25 8.45594V16L12.9325 12.25ZM10 1.90094L17.6791 7.02062L11.3978 11.5H8.60406L2.32281 7.02062L10 1.90094Z" fill="#222222"/>
</svg>
