<svg width="22" height="20" viewBox="0 0 22 20" fill="none" xmlns="http://www.w3.org/2000/svg">
<path d="M1.83221 17.061L2.78478 18.7183C2.98272 19.0673 3.26725 19.3414 3.60127 19.5408L7.00333 13.6091H0.199219C0.199219 13.9954 0.298188 14.3817 0.496125 14.7307L1.83221 17.061Z" fill="#0066DA"/>
<path d="M10.9992 6.63088L7.59714 0.699219C7.26312 0.898602 6.97859 1.17276 6.78065 1.52168L0.496125 12.4878C0.301828 12.8292 0.199477 13.2158 0.199219 13.6093H7.00333L10.9992 6.63088Z" fill="#413E35"/>
<path d="M18.3986 19.5408C18.7327 19.3414 19.0172 19.0673 19.2151 18.7183L19.611 18.033L21.5038 14.7307C21.7017 14.3817 21.8007 13.9954 21.8007 13.6091H14.9961L16.444 16.4753L18.3986 19.5408Z" fill="#EA4335"/>
<path d="M10.9997 6.63064L14.4018 0.698978C14.0677 0.499594 13.6842 0.399902 13.2884 0.399902H8.71106C8.31518 0.399902 7.93168 0.512056 7.59766 0.698978L10.9997 6.63064Z" fill="#00832D"/>
<path d="M14.9954 13.6091H7.00362L3.60156 19.5408C3.93558 19.7402 4.31909 19.8399 4.71496 19.8399H17.284C17.6799 19.8399 18.0634 19.7277 18.3974 19.5408L14.9954 13.6091Z" fill="#2684FC"/>
<path d="M18.3608 7.00473L15.2185 1.52168C15.0206 1.17276 14.7361 0.898602 14.4021 0.699219L11 6.63088L14.9959 13.6093H21.7876C21.7876 13.223 21.6886 12.8367 21.4907 12.4878L18.3608 7.00473Z" fill="#FFBA00"/>
</svg>
