<svg width="20" height="19" viewBox="0 0 20 19" fill="none" xmlns="http://www.w3.org/2000/svg">
<path d="M8.875 8.25C8.875 8.0275 8.94098 7.80999 9.0646 7.62498C9.18821 7.43998 9.36391 7.29578 9.56948 7.21063C9.77505 7.12549 10.0012 7.10321 10.2195 7.14662C10.4377 7.19002 10.6382 7.29717 10.7955 7.4545C10.9528 7.61184 11.06 7.81229 11.1034 8.03052C11.1468 8.24875 11.1245 8.47495 11.0394 8.68052C10.9542 8.88609 10.81 9.06179 10.625 9.1854C10.44 9.30902 10.2225 9.375 10 9.375C9.70163 9.375 9.41548 9.25647 9.2045 9.04549C8.99353 8.83452 8.875 8.54837 8.875 8.25ZM14.125 9.375C14.3475 9.375 14.565 9.30902 14.75 9.1854C14.935 9.06179 15.0792 8.88609 15.1644 8.68052C15.2495 8.47495 15.2718 8.24875 15.2284 8.03052C15.185 7.81229 15.0778 7.61184 14.9205 7.4545C14.7632 7.29717 14.5627 7.19002 14.3445 7.14662C14.1262 7.10321 13.9 7.12549 13.6945 7.21063C13.4889 7.29578 13.3132 7.43998 13.1896 7.62498C13.066 7.80999 13 8.0275 13 8.25C13 8.54837 13.1185 8.83452 13.3295 9.04549C13.5405 9.25647 13.8266 9.375 14.125 9.375ZM19.75 2.25V14.25C19.75 14.6478 19.592 15.0294 19.3107 15.3107C19.0294 15.592 18.6478 15.75 18.25 15.75H12.6747L11.2834 18.0272C11.1495 18.2484 10.9607 18.4312 10.7353 18.5579C10.5099 18.6846 10.2556 18.7509 9.997 18.7503C9.73844 18.7497 9.4844 18.6823 9.25956 18.5547C9.03472 18.427 8.8467 18.2433 8.71375 18.0216L7.32531 15.75H1.75C1.35218 15.75 0.970644 15.592 0.68934 15.3107C0.408035 15.0294 0.25 14.6478 0.25 14.25V2.25C0.25 1.85218 0.408035 1.47064 0.68934 1.18934C0.970644 0.908035 1.35218 0.75 1.75 0.75H18.25C18.6478 0.75 19.0294 0.908035 19.3107 1.18934C19.592 1.47064 19.75 1.85218 19.75 2.25ZM18.25 2.25H1.75V14.25H7.32531C7.58354 14.2507 7.83727 14.3177 8.06216 14.4446C8.28706 14.5715 8.4756 14.754 8.60969 14.9747L10 17.25L11.3894 14.97C11.5241 14.75 11.713 14.5682 11.938 14.4422C12.1631 14.3161 12.4167 14.2499 12.6747 14.25H18.25V2.25ZM5.875 9.375C6.0975 9.375 6.31501 9.30902 6.50002 9.1854C6.68502 9.06179 6.82922 8.88609 6.91436 8.68052C6.99951 8.47495 7.02179 8.24875 6.97838 8.03052C6.93498 7.81229 6.82783 7.61184 6.6705 7.4545C6.51316 7.29717 6.31271 7.19002 6.09448 7.14662C5.87625 7.10321 5.65005 7.12549 5.44448 7.21063C5.23891 7.29578 5.06321 7.43998 4.9396 7.62498C4.81598 7.80999 4.75 8.0275 4.75 8.25C4.75 8.54837 4.86853 8.83452 5.0795 9.04549C5.29048 9.25647 5.57663 9.375 5.875 9.375Z" fill="#222222"/>
</svg>
