<svg width="20" height="18" viewBox="0 0 20 18" fill="none" xmlns="http://www.w3.org/2000/svg">
<path fill-rule="evenodd" clip-rule="evenodd" d="M14 0C14.5523 0 15 0.447715 15 1H17C18.6569 1 20 2.34315 20 4V15C20 16.6569 18.6569 18 17 18H3C1.34315 18 0 16.6569 0 15V4C0 2.34315 1.34315 1 3 1H5C5 0.447715 5.44772 0 6 0C6.55228 0 7 0.447715 7 1H13C13 0.447715 13.4477 0 14 0ZM5 3H3C2.44772 3 2 3.44772 2 4V14.5C2 15.3284 2.67157 16 3.5 16H16.5C17.3284 16 18 15.3284 18 14.5V4C18 3.44772 17.5523 3 17 3H15C15 3.55228 14.5523 4 14 4C13.4477 4 13 3.55228 13 3H7C7 3.55228 6.55228 4 6 4C5.44772 4 5 3.55228 5 3ZM7.2 13C7.64183 13 8 13.3582 8 13.8V14.2C8 14.6418 7.64183 15 7.2 15H6.8C6.35817 15 6 14.6418 6 14.2V13.8C6 13.3582 6.35817 13 6.8 13H7.2ZM4.2 13C4.64183 13 5 13.3582 5 13.8V14.2C5 14.6418 4.64183 15 4.2 15H3.8C3.35817 15 3 14.6418 3 14.2V13.8C3 13.3582 3.35817 13 3.8 13H4.2ZM10.2 13C10.6418 13 11 13.3582 11 13.8V14.2C11 14.6418 10.6418 15 10.2 15H9.8C9.35817 15 9 14.6418 9 14.2V13.8C9 13.3582 9.35817 13 9.8 13H10.2ZM13.2 13C13.6418 13 14 13.3582 14 13.8V14.2C14 14.6418 13.6418 15 13.2 15H12.8C12.3582 15 12 14.6418 12 14.2V13.8C12 13.3582 12.3582 13 12.8 13H13.2ZM7.2 9.5C7.64183 9.5 8 9.85817 8 10.3V10.7C8 11.1418 7.64183 11.5 7.2 11.5H6.8C6.35817 11.5 6 11.1418 6 10.7V10.3C6 9.85817 6.35817 9.5 6.8 9.5H7.2ZM4.2 9.5C4.64183 9.5 5 9.85817 5 10.3V10.7C5 11.1418 4.64183 11.5 4.2 11.5H3.8C3.35817 11.5 3 11.1418 3 10.7V10.3C3 9.85817 3.35817 9.5 3.8 9.5H4.2ZM10.2 9.5C10.6418 9.5 11 9.85817 11 10.3V10.7C11 11.1418 10.6418 11.5 10.2 11.5H9.8C9.35817 11.5 9 11.1418 9 10.7V10.3C9 9.85817 9.35817 9.5 9.8 9.5H10.2ZM13.2 9.5C13.6418 9.5 14 9.85817 14 10.3V10.7C14 11.1418 13.6418 11.5 13.2 11.5H12.8C12.3582 11.5 12 11.1418 12 10.7V10.3C12 9.85817 12.3582 9.5 12.8 9.5H13.2ZM16.2 9.5C16.6418 9.5 17 9.85817 17 10.3V10.7C17 11.1418 16.6418 11.5 16.2 11.5H15.8C15.3582 11.5 15 11.1418 15 10.7V10.3C15 9.85817 15.3582 9.5 15.8 9.5H16.2ZM7.2 6C7.64183 6 8 6.35817 8 6.8V7.2C8 7.64183 7.64183 8 7.2 8H6.8C6.35817 8 6 7.64183 6 7.2V6.8C6 6.35817 6.35817 6 6.8 6H7.2ZM10.2 6C10.6418 6 11 6.35817 11 6.8V7.2C11 7.64183 10.6418 8 10.2 8H9.8C9.35817 8 9 7.64183 9 7.2V6.8C9 6.35817 9.35817 6 9.8 6H10.2ZM13.2 6C13.6418 6 14 6.35817 14 6.8V7.2C14 7.64183 13.6418 8 13.2 8H12.8C12.3582 8 12 7.64183 12 7.2V6.8C12 6.35817 12.3582 6 12.8 6H13.2ZM16.2 6C16.6418 6 17 6.35817 17 6.8V7.2C17 7.64183 16.6418 8 16.2 8H15.8C15.3582 8 15 7.64183 15 7.2V6.8C15 6.35817 15.3582 6 15.8 6H16.2Z" fill="#5E5E5E"/>
</svg>
