<svg width="8" height="14" viewBox="0 0 8 14" fill="none" xmlns="http://www.w3.org/2000/svg">
<path d="M7.35403 9.64615C7.40052 9.69259 7.4374 9.74774 7.46256 9.80843C7.48772 9.86913 7.50067 9.9342 7.50067 9.9999C7.50067 10.0656 7.48772 10.1307 7.46256 10.1914C7.4374 10.2521 7.40052 10.3072 7.35403 10.3537L4.35403 13.3537C4.30759 13.4001 4.25245 13.437 4.19175 13.4622C4.13105 13.4873 4.06599 13.5003 4.00028 13.5003C3.93457 13.5003 3.86951 13.4873 3.80881 13.4622C3.74811 13.437 3.69296 13.4001 3.64653 13.3537L0.646528 10.3537C0.552707 10.2598 0.5 10.1326 0.5 9.9999C0.5 9.86722 0.552707 9.73997 0.646528 9.64615C0.740348 9.55233 0.867596 9.49963 1.00028 9.49963C1.13296 9.49963 1.26021 9.55233 1.35403 9.64615L4.00028 12.293L6.64653 9.64615C6.69296 9.59967 6.74811 9.56279 6.80881 9.53762C6.86951 9.51246 6.93457 9.49951 7.00028 9.49951C7.06599 9.49951 7.13105 9.51246 7.19175 9.53762C7.25245 9.56279 7.30759 9.59967 7.35403 9.64615ZM1.35403 4.35366L4.00028 1.70678L6.64653 4.35366C6.74035 4.44748 6.8676 4.50018 7.00028 4.50018C7.13296 4.50018 7.26021 4.44748 7.35403 4.35366C7.44785 4.25984 7.50056 4.13259 7.50056 3.99991C7.50056 3.86722 7.44785 3.73998 7.35403 3.64615L4.35403 0.646155C4.30759 0.599667 4.25245 0.562787 4.19175 0.537625C4.13105 0.512463 4.06599 0.499512 4.00028 0.499512C3.93457 0.499512 3.86951 0.512463 3.80881 0.537625C3.74811 0.562787 3.69296 0.599667 3.64653 0.646155L0.646528 3.64615C0.552707 3.73998 0.5 3.86722 0.5 3.99991C0.5 4.13259 0.552708 4.25983 0.646528 4.35365C0.740349 4.44748 0.867596 4.50018 1.00028 4.50018C1.13296 4.50018 1.26021 4.44748 1.35403 4.35366Z" fill="#404040"/>
</svg>
