<svg width="10" height="17" viewBox="0 0 10 17" fill="none" xmlns="http://www.w3.org/2000/svg">
<path d="M9.51151 9.03055L2.01151 16.5306C1.94183 16.6002 1.8591 16.6555 1.76806 16.6932C1.67701 16.7309 1.57943 16.7503 1.48089 16.7503C1.38234 16.7503 1.28476 16.7309 1.19371 16.6932C1.10267 16.6555 1.01994 16.6002 0.95026 16.5306C0.880578 16.4609 0.825302 16.3781 0.787591 16.2871C0.749879 16.1961 0.730469 16.0985 0.730469 15.9999C0.730469 15.9014 0.749879 15.8038 0.787591 15.7128C0.825302 15.6217 0.880578 15.539 0.95026 15.4693L7.92057 8.49993L0.95026 1.53055C0.80953 1.38982 0.730469 1.19895 0.730469 0.999929C0.730469 0.800906 0.80953 0.610034 0.95026 0.469304C1.09099 0.328573 1.28186 0.249512 1.48089 0.249512C1.67991 0.249512 1.87078 0.328573 2.01151 0.469304L9.51151 7.9693C9.58124 8.03896 9.63656 8.12168 9.67431 8.21272C9.71205 8.30377 9.73147 8.40137 9.73147 8.49993C9.73147 8.59849 9.71205 8.69608 9.67431 8.78713C9.63656 8.87818 9.58124 8.9609 9.51151 9.03055Z" fill="black"/>
</svg>
