<svg width="24" height="22" viewBox="0 0 24 22" fill="none" xmlns="http://www.w3.org/2000/svg">
<path d="M23.6023 6.588L12.3523 0.588C12.2438 0.53022 12.1227 0.5 11.9998 0.5C11.8768 0.5 11.7558 0.53022 11.6473 0.588L0.397266 6.588C0.27727 6.65195 0.176916 6.74732 0.106941 6.8639C0.036965 6.98049 0 7.1139 0 7.24988C0 7.38585 0.036965 7.51926 0.106941 7.63585C0.176916 7.75243 0.27727 7.8478 0.397266 7.91175L2.99977 9.30019V13.8396C2.99899 14.208 3.13457 14.5636 3.38039 14.838C4.60852 16.2058 7.36008 18.4999 11.9998 18.4999C13.5382 18.5126 15.065 18.2339 16.4998 17.6786V20.7499C16.4998 20.9488 16.5788 21.1396 16.7194 21.2802C16.8601 21.4209 17.0509 21.4999 17.2498 21.4999C17.4487 21.4999 17.6394 21.4209 17.7801 21.2802C17.9207 21.1396 17.9998 20.9488 17.9998 20.7499V16.9539C18.9778 16.3894 19.8616 15.6754 20.6191 14.838C20.865 14.5636 21.0005 14.208 20.9998 13.8396V9.30019L23.6023 7.91175C23.7223 7.8478 23.8226 7.75243 23.8926 7.63585C23.9626 7.51926 23.9995 7.38585 23.9995 7.24988C23.9995 7.1139 23.9626 6.98049 23.8926 6.8639C23.8226 6.74732 23.7223 6.65195 23.6023 6.588ZM11.9998 16.9999C7.9432 16.9999 5.55727 15.018 4.49977 13.8396V10.0999L11.6473 13.9118C11.7558 13.9695 11.8768 13.9998 11.9998 13.9998C12.1227 13.9998 12.2438 13.9695 12.3523 13.9118L16.4998 11.7002V16.0446C15.3185 16.5958 13.8298 16.9999 11.9998 16.9999ZM19.4998 13.8358C19.0502 14.3347 18.5472 14.7827 17.9998 15.1718V10.8996L19.4998 10.0999V13.8358ZM17.6248 9.4005L17.6041 9.38831L12.3541 6.588C12.179 6.49853 11.9757 6.48145 11.7881 6.54044C11.6004 6.59943 11.4435 6.72976 11.351 6.90337C11.2586 7.07697 11.238 7.27994 11.2938 7.46855C11.3495 7.65717 11.4771 7.81633 11.6491 7.91175L16.031 10.2499L11.9998 12.3996L2.34352 7.24988L11.9998 2.10019L21.656 7.24988L17.6248 9.4005Z" fill="#A6A6A6"/>
</svg>
